<?xml version="1.0" encoding="utf-8"?>
<!-- Generator: Adobe Illustrator 15.1.0, SVG Export Plug-In . SVG Version: 6.00 Build 0)  -->
<!DOCTYPE svg PUBLIC "-//W3C//DTD SVG 1.1//EN" "http://www.w3.org/Graphics/SVG/1.1/DTD/svg11.dtd">
<svg version="1.1" id="Camada_1" xmlns="http://www.w3.org/2000/svg" xmlns:xlink="http://www.w3.org/1999/xlink" x="0px" y="0px"
	 width="289.011px" height="286.813px" viewBox="0 0 289.011 286.813" enable-background="new 0 0 289.011 286.813"
	 xml:space="preserve">
<ellipse fill="#FEEE00" stroke="#000000" stroke-width="4" stroke-miterlimit="10" cx="145.609" cy="141.759" rx="137.912" ry="132.967"/>
<polygon fill="#76AADB" stroke="#000000" stroke-width="4" stroke-miterlimit="10" points="172.667,11.357 272.069,99.991 
	245.011,230.393 118.55,272.16 19.148,183.526 46.207,53.125 "/>
<polygon fill="#FEEE00" stroke="#000000" stroke-width="4" stroke-miterlimit="10" points="217.705,51.516 259.81,159.074 
	187.713,249.317 73.513,232.001 31.409,124.443 103.505,34.2 "/>
<polygon fill="#76AADB" stroke="#000000" stroke-width="4" stroke-miterlimit="10" points="179.034,45.652 245.552,122.653 
	212.127,218.759 112.184,237.865 45.666,160.864 79.092,64.758 "/>
<polygon fill="#FEEE00" stroke="#000000" stroke-width="4" stroke-miterlimit="10" points="211.965,83.773 229.004,170.232 
	162.647,228.218 79.252,199.744 62.213,113.285 128.57,55.299 "/>
<circle fill="#009BDB" stroke="#000000" stroke-width="4" stroke-miterlimit="10" cx="145.609" cy="141.759" r="43.957"/>
<text transform="matrix(0.9323 -0.023 0.0247 0.9997 117.5737 93.1162)" font-family="'MyriadPro-Regular'" font-size="22.5181">VOLEI</text>
<text transform="matrix(1 0 0 1 132.499 149.4502)" font-family="'MyriadPro-Regular'" font-size="21">E.C</text>
<polygon fill="#7B057E" stroke="#000000" stroke-miterlimit="10" points="91.208,173.914 93.858,182.068 102.432,182.068 
	95.496,187.108 98.145,195.262 91.208,190.223 84.272,195.262 86.921,187.108 79.985,182.068 88.559,182.068 "/>
<polygon fill="#7B057E" stroke="#000000" stroke-miterlimit="10" points="214.285,155.111 216.715,162.59 224.578,162.59 
	218.217,167.211 220.646,174.69 214.285,170.068 207.924,174.69 210.354,167.211 203.992,162.59 211.855,162.59 "/>
<polygon fill="#7B057E" stroke="#000000" stroke-miterlimit="10" points="158.241,202.635 160.363,209.167 167.231,209.167 
	161.675,213.204 163.798,219.735 158.241,215.699 152.685,219.735 154.808,213.204 149.251,209.167 156.119,209.167 "/>
</svg>
